<svg width="15" height="15" viewBox="0 0 15 15" fill="none" xmlns="http://www.w3.org/2000/svg">
<path d="M6.66667 4.16667V8.33333L10.2083 10.4333L10.85 9.36667L7.91667 7.625V4.16667H6.66667ZM15 5.83333V0L12.8 2.2C11.45 0.841667 9.575 0 7.5 0C3.35833 0 0 3.35833 0 7.5C0 11.6417 3.35833 15 7.5 15C11.6417 15 15 11.6417 15 7.5H13.3333C13.3333 10.7167 10.7167 13.3333 7.5 13.3333C4.28333 13.3333 1.66667 10.7167 1.66667 7.5C1.66667 4.28333 4.28333 1.66667 7.5 1.66667C9.10833 1.66667 10.5667 2.325 11.625 3.375L9.16667 5.83333H15Z" fill="black"/>
</svg>
